<?xml version="1.0" encoding="UTF-8" standalone="no"?>
<!-- Created with Inkscape (http://www.inkscape.org/) -->

<svg
   xmlns:dc="http://purl.org/dc/elements/1.1/"
   xmlns:cc="http://creativecommons.org/ns#"
   xmlns:rdf="http://www.w3.org/1999/02/22-rdf-syntax-ns#"
   xmlns:svg="http://www.w3.org/2000/svg"
   xmlns="http://www.w3.org/2000/svg"
   xmlns:sodipodi="http://sodipodi.sourceforge.net/DTD/sodipodi-0.dtd"
   xmlns:inkscape="http://www.inkscape.org/namespaces/inkscape"
   width="414.00674"
   height="271.05518"
   id="svg3123"
   version="1.1"
   inkscape:version="0.48.2 r9819"
   sodipodi:docname="Nuovo documento 7">
  <defs
     id="defs3125" />
  <sodipodi:namedview
     id="base"
     pagecolor="#ffffff"
     bordercolor="#666666"
     borderopacity="1.0"
     inkscape:pageopacity="0.0"
     inkscape:pageshadow="2"
     inkscape:zoom="0.35"
     inkscape:cx="287.58256"
     inkscape:cy="-1.522421"
     inkscape:document-units="px"
     inkscape:current-layer="layer1"
     showgrid="false"
     fit-margin-top="0"
     fit-margin-left="0"
     fit-margin-right="0"
     fit-margin-bottom="0"
     inkscape:window-width="671"
     inkscape:window-height="433"
     inkscape:window-x="0"
     inkscape:window-y="0"
     inkscape:window-maximized="0" />
  <metadata
     id="metadata3128">
    <rdf:RDF>
      <cc:Work
         rdf:about="">
        <dc:format>image/svg+xml</dc:format>
        <dc:type
           rdf:resource="http://purl.org/dc/dcmitype/StillImage" />
        <dc:title></dc:title>
      </cc:Work>
    </rdf:RDF>
  </metadata>
  <g
     inkscape:label="Livello 1"
     inkscape:groupmode="layer"
     id="layer1"
     transform="translate(-87.417439,-259.78458)">
    <g
       id="g3140"
       transform="translate(373.42858,259.79074)">
      <g
         id="layer1-0"
         transform="translate(0,-924.36218)">
        <path
           inkscape:connector-curvature="0"
           style="fill:none;stroke:#000000;stroke-width:1.99465585;stroke-linecap:round;stroke-linejoin:round;stroke-miterlimit:4;stroke-opacity:1;stroke-dasharray:none"
           id="path3160"
           transform="matrix(0.98823045,0,0,0.98627746,0.23592187,924.38684)"
           d="m 128.28937,64.865463 a 63.765881,63.892147 0 1 1 -127.53175968,0 63.765881,63.892147 0 1 1 127.53175968,0 z" />
      </g>
      <path
         inkscape:transform-center-y="-0.38351492"
         inkscape:connector-curvature="0"
         id="path2988"
         d="M 54.568538,28.664779 117.43146,66.109251 54.568538,101.25263 z"
         inkscape:transform-center-x="-10.477154"
         style="color:#000000;fill:#4d4d4d;fill-opacity:1;fill-rule:nonzero;stroke:none;stroke-width:8;marker:none;visibility:visible;display:inline;overflow:visible;enable-background:accumulate" />
      <path
         inkscape:transform-center-y="-0.383518"
         style="color:#000000;fill:#4d4d4d;fill-opacity:1;fill-rule:nonzero;stroke:none;stroke-width:8;marker:none;visibility:visible;display:inline;overflow:visible;enable-background:accumulate"
         inkscape:transform-center-x="-10.477154"
         d="M 24.568538,28.042495 87.43146,65.486967 24.568538,100.63034 z"
         id="path3010"
         inkscape:connector-curvature="0" />
    </g>
    <g
       id="g3156"
       transform="translate(230.04506,402.81478)">
      <g
         id="layer1-7"
         transform="translate(0.38351554,-924.36218)">
        <path
           inkscape:connector-curvature="0"
           style="fill:none;stroke:#000000;stroke-width:1.99465585;stroke-linecap:round;stroke-linejoin:round;stroke-miterlimit:4;stroke-opacity:1;stroke-dasharray:none"
           id="path3160-2"
           transform="matrix(0.98823045,0,0,0.98627746,0.23592187,924.38684)"
           d="m 128.28937,64.865463 a 63.765881,63.892147 0 1 1 -127.53175968,0 63.765881,63.892147 0 1 1 127.53175968,0 z" />
      </g>
      <g
         transform="translate(140.19974,3.9680411)"
         id="g3098">
        <path
           inkscape:connector-curvature="0"
           id="rect3094"
           d="m -102.39864,30.031963 23.19096,0 0,60 -23.19096,0 z"
           style="color:#000000;fill:#4d4d4d;fill-opacity:1;fill-rule:nonzero;stroke:none;stroke-width:8;marker:none;visibility:visible;display:inline;overflow:visible;enable-background:accumulate" />
        <path
           inkscape:connector-curvature="0"
           id="rect3096"
           d="m -72.424767,30.031963 23.190964,0 0,60 -23.190964,0 z"
           style="color:#000000;fill:#4d4d4d;fill-opacity:1;fill-rule:nonzero;stroke:none;stroke-width:8;marker:none;visibility:visible;display:inline;overflow:visible;enable-background:accumulate" />
      </g>
    </g>
    <g
       id="g3171"
       transform="translate(230.42858,259.79074)">
      <g
         id="layer1-9"
         transform="translate(0,-924.36218)">
        <path
           inkscape:connector-curvature="0"
           style="fill:none;stroke:#000000;stroke-width:1.99465585;stroke-linecap:round;stroke-linejoin:round;stroke-miterlimit:4;stroke-opacity:1;stroke-dasharray:none"
           id="path3160-4"
           transform="matrix(0.98823045,0,0,0.98627746,0.23592187,924.38684)"
           d="m 128.28937,64.865463 a 63.765881,63.892147 0 1 1 -127.53175968,0 63.765881,63.892147 0 1 1 127.53175968,0 z" />
      </g>
      <path
         inkscape:connector-curvature="0"
         id="path2988-3"
         d="M 42.568538,28.426011 105.43146,64.719936 42.568538,101.01386 z"
         inkscape:transform-center-x="-10.477154"
         style="color:#000000;fill:#4d4d4d;fill-opacity:1;fill-rule:nonzero;stroke:none;stroke-width:8;marker:none;visibility:visible;display:inline;overflow:visible;enable-background:accumulate" />
    </g>
    <g
       id="g3184"
       transform="translate(373.04506,402.81478)">
      <g
         id="layer1-8"
         transform="translate(0.38351554,-924.36218)">
        <path
           inkscape:connector-curvature="0"
           style="fill:none;stroke:#000000;stroke-width:1.99465585;stroke-linecap:round;stroke-linejoin:round;stroke-miterlimit:4;stroke-opacity:1;stroke-dasharray:none"
           id="path3160-7"
           transform="matrix(0.98823045,0,0,0.98627746,0.23592187,924.38684)"
           d="m 128.28937,64.865463 a 63.765881,63.892147 0 1 1 -127.53175968,0 63.765881,63.892147 0 1 1 127.53175968,0 z" />
      </g>
      <path
         id="path3072"
         d="m 102.01513,70.856186 c 0,17.792022 -14.680838,32.215304 -32.790574,32.215304 -18.109736,0 -32.790577,-14.423282 -32.790577,-32.215304 0,-17.792022 14.680841,-32.215305 32.790577,-32.215305 18.109736,0 32.790574,14.423283 32.790574,32.215305 z"
         style="color:#000000;fill:#4d4d4d;fill-opacity:1;fill-rule:nonzero;stroke:none;stroke-width:8;marker:none;visibility:visible;display:inline;overflow:visible;enable-background:accumulate"
         transform="matrix(0.9911384,0,0,1.0088372,-4.2276005,-7.4823521)"
         inkscape:connector-curvature="0" />
    </g>
    <g
       id="g3198"
       transform="translate(87.428576,259.79074)">
      <g
         id="layer1-6"
         transform="translate(0,-924.36218)">
        <path
           inkscape:connector-curvature="0"
           style="fill:none;stroke:#000000;stroke-width:1.99465585;stroke-linecap:round;stroke-linejoin:round;stroke-miterlimit:4;stroke-opacity:1;stroke-dasharray:none"
           id="path3160-0"
           transform="matrix(0.98823045,0,0,0.98627746,0.23592187,924.38684)"
           d="m 128.28937,64.865463 a 63.765881,63.892147 0 1 1 -127.53175968,0 63.765881,63.892147 0 1 1 127.53175968,0 z" />
      </g>
      <path
         inkscape:transform-center-y="-0.38351492"
         inkscape:connector-curvature="0"
         id="path2988-6"
         d="M 73.43146,28.664779 10.568538,66.109251 73.43146,101.25263 z"
         inkscape:transform-center-x="10.477154"
         style="color:#000000;fill:#4d4d4d;fill-opacity:1;fill-rule:nonzero;stroke:none;stroke-width:8;marker:none;visibility:visible;display:inline;overflow:visible;enable-background:accumulate" />
      <path
         inkscape:transform-center-y="-0.383518"
         style="color:#000000;fill:#4d4d4d;fill-opacity:1;fill-rule:nonzero;stroke:none;stroke-width:8;marker:none;visibility:visible;display:inline;overflow:visible;enable-background:accumulate"
         inkscape:transform-center-x="10.477154"
         d="M 103.43146,28.042495 40.568538,65.486967 103.43146,100.63034 z"
         id="path3010-8"
         inkscape:connector-curvature="0" />
    </g>
    <g
       id="g3212"
       transform="translate(87.04506,402.81478)">
      <g
         id="layer1-1"
         transform="translate(0.38351554,-924.36218)">
        <path
           inkscape:connector-curvature="0"
           style="fill:none;stroke:#000000;stroke-width:1.99465585;stroke-linecap:round;stroke-linejoin:round;stroke-miterlimit:4;stroke-opacity:1;stroke-dasharray:none"
           id="path3160-9"
           transform="matrix(0.98823045,0,0,0.98627746,0.23592187,924.38684)"
           d="m 128.28937,64.865463 a 63.765881,63.892147 0 1 1 -127.53175968,0 63.765881,63.892147 0 1 1 127.53175968,0 z" />
      </g>
      <path
         id="rect3050"
         d="m 34.383514,34.000004 60,0 0,60 -60,0 z"
         style="color:#000000;fill:#4d4d4d;fill-opacity:1;fill-rule:nonzero;stroke:none;stroke-width:8;marker:none;visibility:visible;display:inline;overflow:visible;enable-background:accumulate"
         inkscape:connector-curvature="0" />
    </g>
  </g>
</svg>
